<svg height="512" viewBox="0 0 64 64" width="512" xmlns="http://www.w3.org/2000/svg"><g id="Filled_outline" data-name="Filled outline"><path d="m58.544 37a16.422 16.422 0 0 0 2.02-4.919c1.342-5.884-.433-13.744-5.049-15.741-3.845-1.663-8.386 1.291-9.09 0-.56-1.027 2.516-2.534 3.03-5.9.367-2.4-.592-5.611-3.03-6.886-3.077-1.61-7.11.595-9.089 2.951-1.589 1.893-2.019 6.887-5.049 6.887s-4.04-.909-5.05-1.968c-3.71-3.89-3.7-3.59-5.049-4.994a10.128 10.128 0 0 0 -14.139 0 10.446 10.446 0 0 0 -3.029 6.959c.419 3.221 2.916 3.87 2.02 5.9a12.3 12.3 0 0 1 -2.02 1.967c-2.02 1.901-2.02 4.158-2.02 6.89a8.974 8.974 0 0 0 9.089 8.854z" fill="#55b56a"/><path d="m9 18c0-3.59 3.41-8 7-8 3.59 0 6 4.41 6 8a14.558 14.558 0 0 1 -4.6 10.6l-1.4 1.4-2.4-2.4c-2.947-2.947-4.6-5.438-4.6-9.6z" fill="#8ec13f"/><path d="m25 32c1.24.691 2.608.369 4 0 5-1.326 7.494-1.989 9-3 .647-.435 6.86-4.606 6-8-.848-3.346-8.454-5.475-14-3-4.571 2.04-7.886 7.271-7 11a4.67 4.67 0 0 0 2 3z" fill="#8ec13f"/><path d="m37 37 6-12a12.2 12.2 0 0 1 8-6.282c2.019-.445 4.882-.836 6 .282 2.485 2.485 1.985 7.015-.5 9.5l-8.5 8.5z" fill="#c8d952"/><path d="m23 37-12-12c-2.982-2.982-8-1.217-8 3a8.963 8.963 0 0 0 9 9z" fill="#c8d952"/><path d="m3 37h58a0 0 0 0 1 0 0 20 20 0 0 1 -20 20h-18a20 20 0 0 1 -20-20 0 0 0 0 1 0 0z" fill="#ffd782"/><path d="m25 57h14v4h-14z" fill="#f9bb4b"/><path d="m61 36h-.778a17.149 17.149 0 0 0 1.317-3.7c1.448-6.35-.468-14.649-5.627-16.881-2.49-1.076-5.114-.479-7.028-.043-.367.084-.811.185-1.174.246.107-.133.223-.271.324-.392a9.342 9.342 0 0 0 2.41-4.645c.415-2.722-.69-6.424-3.555-7.923-3.446-1.8-7.888.3-10.318 3.194a11.209 11.209 0 0 0 -1.541 2.989c-.863 2.141-1.52 3.544-2.743 3.544-2.745 0-3.513-.806-4.326-1.659-2.351-2.464-4.57-4.492-5.05-4.994a10.575 10.575 0 0 0 -7.744-3.185 10.836 10.836 0 0 0 -7.84 3.185 11.242 11.242 0 0 0 -3.3 7.782 7.893 7.893 0 0 0 1.573 3.69c.637.919.753 1.165.54 1.65a10.769 10.769 0 0 1 -1.323 1.252c-.205.174-.377.322-.482.421-2.291 2.156-2.335 4.731-2.335 7.459v.156a9.758 9.758 0 0 0 4.021 7.854h-3.021a1 1 0 0 0 -1 1 21.023 21.023 0 0 0 21 21h1v3a1 1 0 0 0 1 1h14a1 1 0 0 0 1-1v-3h1a21.023 21.023 0 0 0 21-21 1 1 0 0 0 -1-1zm-4.707-16.293c2.171 2.171 1.526 6.06-.5 8.086l-8.207 8.207h-4.109a29.359 29.359 0 0 1 2.362-4.456 29.685 29.685 0 0 1 8.709-8.708l-1.1-1.672a31.661 31.661 0 0 0 -9.291 9.292 31.32 31.32 0 0 0 -2.834 5.544h-2.7l5.264-10.529a11.15 11.15 0 0 1 7.333-5.777c3.056-.674 4.625-.435 5.073.013zm-20.643 2.356a22.612 22.612 0 0 0 -10.883 8.412 4.31 4.31 0 0 1 -.794-1.706c-.771-3.246 2.356-8.036 6.435-9.856a12.108 12.108 0 0 1 4.92-.992 12.826 12.826 0 0 1 5.4 1.134 4 4 0 0 1 2.3 2.191c.474 1.873-2.465 4.827-5.588 6.924-1.369.918-3.818 1.568-8.7 2.863a8.061 8.061 0 0 1 -2.186.371 20.661 20.661 0 0 1 9.792-7.467zm-10.181 11.188a4.753 4.753 0 0 0 1.2.153 10.063 10.063 0 0 0 2.59-.438c5.1-1.352 7.655-2.03 9.3-3.136.4-.267.889-.612 1.418-1.016l-3.595 7.186h-12.06a18.106 18.106 0 0 1 1.147-2.749zm-19.457-19.991a9.7 9.7 0 0 1 2.759-6.141 8.835 8.835 0 0 1 6.394-2.568 8.589 8.589 0 0 1 6.3 2.568c.521.544 2.745 2.577 5.049 4.992 1.188 1.246 2.443 2.278 5.773 2.278 2.665 0 3.737-2.66 4.6-4.8a10.1 10.1 0 0 1 1.213-2.444c1.605-1.911 5.211-4.095 7.86-2.708 1.969 1.03 2.82 3.783 2.5 5.85a7.408 7.408 0 0 1 -1.96 3.661c-.751.895-1.527 1.821-.955 2.871.666 1.221 2.179.876 3.781.51 1.738-.395 3.9-.888 5.79-.071.032.014.061.036.093.05a14.983 14.983 0 0 0 -4.426.433 12.539 12.539 0 0 0 -5.8 3.088c-.006-.025-.006-.05-.012-.075a5.81 5.81 0 0 0 -3.367-3.5 11.938 11.938 0 0 0 -1.62-.634 13.1 13.1 0 0 0 2.933-4.22 13.3 13.3 0 0 0 1.083-5.412l-2 .024a11.144 11.144 0 0 1 -4.437 9.062 14.685 14.685 0 0 0 -7.971 1.013c-5.033 2.246-8.568 7.921-7.565 12.143a5.937 5.937 0 0 0 1.688 3.062 20.083 20.083 0 0 0 -1.2 2.813l-5.1-5.1.7-.7a15.587 15.587 0 0 0 4.885-11.305c0-4.257-2.875-9-7-9a6.1 6.1 0 0 0 -2.836.75l-2.457-2.457-1.414 1.414 2.2 2.2a10.415 10.415 0 0 0 -3.462 6.535 6.639 6.639 0 0 0 -.79-1.375 5.91 5.91 0 0 1 -1.229-2.807zm9.051.389a33.864 33.864 0 0 0 -2.063 9.274c-.063.818-.092 1.642-.1 2.468a10.352 10.352 0 0 1 -2.9-7.391c0-2.992 2.966-7 6-7 2.816 0 5 3.763 5 7a13.481 13.481 0 0 1 -4.3 9.889l-.7.7-1.016-1.017a31.467 31.467 0 0 1 .016-4.495 31.807 31.807 0 0 1 1.94-8.726zm-9.357 8.338c.088-.083.235-.208.408-.355a7.051 7.051 0 0 0 1.841-1.932 3.208 3.208 0 0 0 .117-.341 11.814 11.814 0 0 0 .788 3.338 5.694 5.694 0 0 0 -3.541.255 5.567 5.567 0 0 0 -.593.3 4.943 4.943 0 0 1 .98-1.265zm-1.706 6.159c0-.053 0-.1 0-.154a3.346 3.346 0 0 1 2.084-3.2 3.817 3.817 0 0 1 4.208.913l10.294 10.295h-6.335a11.69 11.69 0 0 1 -3.5-2.667 11.931 11.931 0 0 1 -2.772-5.533l-1.958.4a13.457 13.457 0 0 0 4.435 7.637 7.928 7.928 0 0 1 -6.456-7.691zm34 31.854h-12v-2h12zm3-4h-18a19.025 19.025 0 0 1 -18.974-18h55.948a19.025 19.025 0 0 1 -18.974 18zm18.589-24.141a15.284 15.284 0 0 1 -1.616 4.141h-7.559l6.793-6.793a8.424 8.424 0 0 0 2.382-5.02 18.4 18.4 0 0 1 0 7.672z"/><path d="m53.183 45.424a14.411 14.411 0 0 1 -5.611 4.676l.856 1.808a16.379 16.379 0 0 0 6.389-5.327 16 16 0 0 0 2.134-4.267l-1.9-.62a14.013 14.013 0 0 1 -1.868 3.73z"/><path d="m43 52h2v2h-2z"/></g></svg>