<?xml version="1.0" encoding="iso-8859-1"?>
<!-- Generator: Adobe Illustrator 19.0.0, SVG Export Plug-In . SVG Version: 6.00 Build 0)  -->
<svg version="1.1" id="Capa_1" xmlns="http://www.w3.org/2000/svg" xmlns:xlink="http://www.w3.org/1999/xlink" x="0px" y="0px"
	 viewBox="0 0 512 512" style="enable-background:new 0 0 512 512;" xml:space="preserve">
<circle style="fill:#F7F0E6;" cx="256" cy="256" r="256"/>
<circle style="fill:#ADDF6E;" cx="402.39" cy="240.55" r="23.54"/>
<circle style="fill:#B0AD70;" cx="247.98" cy="270.79" r="49.32"/>
<g>
	<circle style="fill:#E2E8AA;" cx="321.18" cy="132.49" r="34.392"/>
	<circle style="fill:#E2E8AA;" cx="381.38" cy="295.38" r="49.824"/>
	<circle style="fill:#E2E8AA;" cx="156.99" cy="367.11" r="37.875"/>
	<circle style="fill:#E2E8AA;" cx="94.87" cy="257.98" r="28.1"/>
	<circle style="fill:#E2E8AA;" cx="164.02" cy="135.13" r="28.1"/>
</g>
<circle style="fill:#B0AD70;" cx="236.39" cy="164.85" r="49.32"/>
<circle style="fill:#87CD6E;" cx="302.05" cy="203.47" r="49.32"/>
<g>
	<circle style="fill:#ADDF6E;" cx="197.87" cy="359.18" r="50.729"/>
	<path style="fill:#ADDF6E;" d="M403.649,139.603l0.09-8.146c0.034-3.053-3.338-4.947-5.885-3.263
		c-6.088,4.025-15.84,6.017-23.905,7.771c-12.846,2.794-45.857,9.691-43.65,33.967s55.173,48.552,68.414,31.632
		c8.276-10.575,8.065-25.825,6.744-35.776C404.303,157.101,403.552,148.365,403.649,139.603z"/>
</g>
<circle style="fill:#87CD6E;" cx="140.9" cy="202.77" r="30.897"/>
<g>
	<circle style="fill:#ADDF6E;" cx="163.31" cy="172.87" r="30.897"/>
	<path style="fill:#ADDF6E;" d="M101.517,238.345c0,0-8.339,25.775-7.514,41.071c0.487,9.038-5.859,15.139-11.133,18.619
		c-3.467,2.287-3.592,7.332-0.158,9.668c12.24,8.327,31.818,11.687,31.818,11.687l83.355-53.091l-38.253-36.046L101.517,238.345z"/>
	<path style="fill:#ADDF6E;" d="M267.614,74.335c-10.602,22.314-28.416,29.186-28.416,29.186l1.975,48.675
		c0.529,13.046,17.155,18.19,24.96,7.724l30.352-40.703c7.122-20.912-7.768-38.417-17.648-47.236
		C275.243,68.771,269.682,69.982,267.614,74.335z"/>
</g>
<g>
	
		<ellipse transform="matrix(-0.5 -0.866 0.866 -0.5 118.5033 717.2151)" style="fill:#87CD6E;" cx="266.291" cy="324.399" rx="33.149" ry="58.651"/>
	
		<ellipse transform="matrix(-0.5 -0.866 0.866 -0.5 101.3973 501.4223)" style="fill:#87CD6E;" cx="195.445" cy="221.441" rx="33.149" ry="37.999"/>
	
		<ellipse transform="matrix(-0.5 -0.866 0.866 -0.5 335.2056 639.2416)" style="fill:#87CD6E;" cx="352.133" cy="222.857" rx="37.189" ry="41.179"/>
	
		<ellipse transform="matrix(-0.5 -0.866 0.866 -0.5 -15.4832 604.4973)" style="fill:#87CD6E;" cx="166.759" cy="306.718" rx="37.189" ry="41.179"/>
</g>
<g>
	<path style="fill:#B45573;" d="M193.323,283.462l-22.224-10.754c-2.142-1.036-3.03-3.618-1.978-5.753l16.538-33.573
		c1.156-2.346,4.124-3.119,6.277-1.636l26.611,18.336c2.053,1.415,2.47,4.276,0.907,6.218l-20.924,25.991
		C197.277,283.846,195.119,284.331,193.323,283.462z"/>
	<path style="fill:#B45573;" d="M137.867,255.183l-11.557-21.817c-1.114-2.102-0.302-4.71,1.808-5.808l33.194-17.286
		c2.319-1.208,5.17-0.075,6.029,2.395l10.609,30.525c0.818,2.355-0.538,4.909-2.947,5.55l-32.246,8.578
		C140.829,257.832,138.801,256.947,137.867,255.183z"/>
</g>
<path style="fill:#A04B69;" d="M205.075,240.8l-13.14-9.054c-2.153-1.484-5.122-0.71-6.278,1.636l-16.537,33.573
	c-1.051,2.134-0.163,4.716,1.978,5.753l7.14,3.455L205.075,240.8z"/>
<path style="fill:#B45573;" d="M190.902,189.467l-21.295-13.445c-2.052-1.296-2.656-4.014-1.346-6.057l20.606-32.136
	c1.44-2.245,4.537-2.69,6.55-0.939l24.873,21.632c1.919,1.669,2.014,4.617,0.207,6.406l-24.184,23.949
	C194.866,190.309,192.623,190.554,190.902,189.467z"/>
<path style="fill:#A04B69;" d="M207.699,147.572l-12.282-10.681c-2.013-1.751-5.11-1.306-6.55,0.939l-20.606,32.136
	c-1.31,2.043-0.706,4.762,1.346,6.057l6.842,4.32L207.699,147.572z"/>
<path style="fill:#FBE6A5;" d="M420.011,308.795l-110.735,47.286c-3.105,1.326-4.886,4.642-4.199,7.948
	c3.674,17.679-5.354,36.056-22.601,43.421c-17.312,7.393-36.911,1.131-47.109-13.871c-1.857-2.732-5.509-3.585-8.546-2.288
	l-39.431,16.838c0,0,36.343,64.331,126.39,25.879C343.795,421.191,424.229,360.227,420.011,308.795z"/>
<path style="fill:#C9E66E;" d="M419.275,308.855l-0.185,0.015c-4.223,0.347-7.548,3.661-7.918,7.882
	c-3.951,45.074-74.842,98.027-100.858,109.134c-65.947,28.165-99.852-2.386-111.029-16.175c-2.694-3.323-7.349-4.181-11.068-2.068
	l0,0c-4.716,2.679-5.948,8.962-2.471,13.125c2.276,2.725,5.212,5.911,8.834,9.221c19.524,17.842,58.993,39.327,122.664,12.133
	c26.915-11.497,106.529-68.613,111.508-124.03C429.228,312.794,424.578,308.42,419.275,308.855z"/>
<path style="fill:#FBE6A5;" d="M382.336,219.492l-84.695,85.586c-2.375,2.4-2.772,6.143-0.888,8.945
	c10.075,14.985,8.652,35.41-4.539,48.74c-13.241,13.38-33.754,14.979-48.86,4.937c-2.751-1.829-6.454-1.241-8.778,1.107
	l-30.159,30.476c0,0,57.937,45.854,126.809-23.743C354.183,352.342,405.655,265.527,382.336,219.492z"/>
<path style="fill:#C9E66E;" d="M381.677,219.826l-0.166,0.084c-3.78,1.915-5.607,6.239-4.357,10.288
	c13.355,43.231-32.305,119.026-52.204,139.131c-50.438,50.974-93.366,35.481-108.921,26.93c-3.749-2.061-8.383-1.098-11.03,2.263
	l0,0c-3.356,4.261-2.125,10.544,2.666,13.087c3.137,1.665,7.057,3.506,11.662,5.204c24.814,9.153,69.474,14.15,118.17-35.065
	c20.585-20.805,72.75-103.747,56.443-156.945C392.38,219.716,386.424,217.421,381.677,219.826z"/>
<path style="fill:#FBE6A5;" d="M318.355,150.697l-49.843,109.609c-1.398,3.074-0.475,6.723,2.262,8.7
	c14.639,10.572,20.372,30.227,12.609,47.299c-7.792,17.136-26.484,25.735-44.132,21.541c-3.214-0.764-6.485,1.07-7.852,4.076
	l-17.748,39.03c0,0,70.226,22.97,110.756-66.16C337.918,285.08,356.166,185.817,318.355,150.697z"/>
<path style="fill:#C9E66E;" d="M317.853,151.237l-0.127,0.136c-2.883,3.105-3.101,7.794-0.527,11.16
	c27.49,35.938,10.883,122.85-0.829,148.6c-29.68,65.279-75.318,65.6-92.871,62.961c-4.23-0.636-8.245,1.871-9.565,5.94l0,0
	c-1.674,5.159,1.656,10.628,7.03,11.356c3.519,0.476,7.835,0.847,12.742,0.847c26.448,0,70.078-10.767,98.733-73.793
	c12.113-26.644,32.351-122.514-1.359-166.78C327.857,147.431,321.474,147.338,317.853,151.237z"/>
<g>
	<path style="fill:#B99B88;" d="M233.29,307.233c8.581,23.799-3.756,50.049-27.555,58.631l-0.395-16.256
		c-0.152-6.252-6.384-10.517-12.266-8.396l-13.203,4.761c-4.67,1.684-9.832-0.658-11.64-5.282l-6.676-17.071
		c-1.878-4.802,0.575-10.207,5.425-11.956l13.665-4.927c5.883-2.121,7.958-9.382,4.086-14.292l-10.07-12.768
		C198.459,271.097,224.709,283.433,233.29,307.233z"/>
	<path style="fill:#B99B88;" d="M446.883,187.06c8.581,23.799-3.756,50.049-27.555,58.631l-0.395-16.256
		c-0.152-6.252-6.384-10.517-12.266-8.396l-13.203,4.761c-4.67,1.684-9.832-0.658-11.64-5.282l-6.676-17.071
		c-1.878-4.802,0.575-10.207,5.425-11.956l13.665-4.927c5.883-2.121,7.958-9.382,4.086-14.292l-10.07-12.768
		C412.051,150.923,438.301,163.26,446.883,187.06z"/>
</g>
<g>
	<path style="fill:#B45573;" d="M269.916,252.869l-28.739,14.442c-2.769,1.392-6.142,0.262-7.515-2.517l-21.586-43.716
		c-1.508-3.055,0.046-6.736,3.287-7.785l40.054-12.964c3.09-1,6.378,0.838,7.146,3.993l10.271,42.238
		C273.449,249.085,272.239,251.701,269.916,252.869z"/>
	<path style="fill:#B45573;" d="M129.58,366.201l-26.901-13.975c-2.592-1.347-3.592-4.547-2.227-7.13l21.47-40.628
		c1.5-2.839,5.171-3.684,7.762-1.788l32.021,23.434c2.47,1.808,2.883,5.334,0.896,7.663l-26.589,31.17
		C134.421,366.811,131.755,367.331,129.58,366.201z"/>
	<path style="fill:#B45573;" d="M265.448,169.666l-15.651-25.962c-1.508-2.502-0.69-5.753,1.822-7.244l39.52-23.448
		c2.761-1.638,6.334-0.444,7.554,2.526l15.08,36.702c1.163,2.831-0.326,6.055-3.236,7.004l-38.949,12.708
		C269.258,172.712,266.713,171.764,265.448,169.666z"/>
	<path style="fill:#B45573;" d="M141,176.652l-25.279-7.21c-2.436-0.695-3.84-3.24-3.128-5.671l11.198-38.241
		c0.782-2.672,3.754-4.027,6.285-2.865l31.268,14.359c2.412,1.108,3.374,4.032,2.09,6.355l-17.187,31.092
		C145.219,176.33,143.044,177.234,141,176.652z"/>
	<path style="fill:#B45573;" d="M162.85,384.816c-2.375-1.09-5.164,0.181-5.898,2.689l-10.51,35.891
		c-0.668,2.281,0.65,4.67,2.936,5.322l23.725,6.767c1.918,0.547,3.959-0.302,4.924-2.047l9.514-17.21
		c0.333-0.602,0.584-1.246,0.747-1.914l2.392-9.804c0.881-3.61-0.922-7.337-4.299-8.888L162.85,384.816z"/>
	<path style="fill:#B45573;" d="M331.08,143.316l0.835-22.75c0.081-2.192,1.931-3.9,4.123-3.804l34.476,1.508
		c2.409,0.105,4.163,2.325,3.709,4.693l-5.609,29.266c-0.433,2.258-2.693,3.671-4.913,3.072l-29.703-8.024
		C332.223,146.797,331.012,145.155,331.08,143.316z"/>
	<path style="fill:#B45573;" d="M402.175,302.984l0.835-22.75c0.08-2.192,1.931-3.9,4.123-3.804l34.476,1.508
		c2.409,0.105,4.163,2.325,3.709,4.693l-5.609,29.266c-0.433,2.258-2.693,3.671-4.913,3.072l-29.703-8.024
		C403.317,306.465,402.107,304.823,402.175,302.984z"/>
</g>
<g>
	<path style="fill:#A04B69;" d="M141.22,173.53l-5.818-48.42l-5.325-2.446c-2.53-1.162-5.502,0.193-6.284,2.865l-11.198,38.241
		c-0.712,2.431,0.692,4.977,3.128,5.671l25.279,7.21c0.618,0.176,1.238,0.176,1.845,0.095
		C142.015,175.879,141.375,174.815,141.22,173.53z"/>
	<path style="fill:#A04B69;" d="M266.524,130.508c-0.412-0.77-0.66-1.571-0.886-2.366l-14.019,8.318
		c-2.512,1.49-3.33,4.742-1.822,7.244l15.651,25.962c1.265,2.098,3.811,3.046,6.14,2.286l14.571-4.754L266.524,130.508z"/>
	<path style="fill:#A04B69;" d="M235.142,206.891l-19.778,6.401c-3.241,1.049-4.796,4.731-3.288,7.786l21.586,43.716
		c1.372,2.779,4.745,3.909,7.515,2.517l9.234-4.64L235.142,206.891z"/>
	<path style="fill:#A04B69;" d="M123.292,361.121l7.23-52.584c0.212-1.538,1.051-2.759,2.127-3.686l-2.966-2.17
		c-2.591-1.897-6.261-1.051-7.761,1.788l-21.47,40.628c-1.365,2.582-0.365,5.783,2.227,7.129l20.732,10.77
		C123.303,362.386,123.203,361.768,123.292,361.121z"/>
	<path style="fill:#A04B69;" d="M172.835,432.534l-3.756-42.177c-0.079-0.892,0.147-1.705,0.499-2.453l-6.728-3.089
		c-2.374-1.091-5.164,0.181-5.898,2.689l-10.51,35.891c-0.668,2.282,0.65,4.671,2.936,5.323l23.725,6.767
		c0.43,0.122,0.864,0.152,1.293,0.14C173.548,434.837,172.946,433.777,172.835,432.534z"/>
	<path style="fill:#A04B69;" d="M414.866,284.765c-0.967-2.682,0.435-5.637,3.124-6.585l3.219-1.135l-14.077-0.616
		c-2.192-0.096-4.042,1.612-4.123,3.804l-0.835,22.751c-0.067,1.839,1.142,3.481,2.919,3.961l19.683,5.317L414.866,284.765z"/>
	<path style="fill:#A04B69;" d="M353.708,149.94l-5.444-29.05c-0.24-1.281-0.057-2.525,0.375-3.578l-12.601-0.551
		c-2.192-0.096-4.042,1.612-4.123,3.804l-0.835,22.751c-0.067,1.839,1.143,3.481,2.919,3.961l21.415,5.785
		C354.594,152.328,353.955,151.258,353.708,149.94z"/>
	<path style="fill:#A04B69;" d="M144.437,252.477l20.339-42.404c-1.088-0.404-2.337-0.388-3.464,0.199l-33.194,17.286
		c-2.11,1.099-2.922,3.706-1.808,5.808l11.557,21.817c0.934,1.763,2.961,2.649,4.89,2.136l1.406-0.374
		C143.706,255.521,143.739,253.933,144.437,252.477z"/>
</g>
<g>
	<path style="fill:#B99B88;" d="M133.546,212.334c11.892,21.727,3.92,48.981-17.807,60.873l-2.835-15.665
		c-1.09-6.024-7.762-9.21-13.133-6.271l-12.054,6.598c-4.263,2.334-9.61,0.847-12.057-3.352l-9.034-15.506
		c-2.541-4.361-0.984-9.96,3.443-12.384l12.475-6.828c5.37-2.939,6.283-10.276,1.796-14.442l-11.668-10.831
		C94.399,182.634,121.653,190.607,133.546,212.334z"/>
	<path style="fill:#B99B88;" d="M195.29,95.787c22.816-10.931,50.173-1.296,61.104,21.52l-16.134,2.028
		c-6.205,0.78-9.822,7.409-7.12,13.048l6.064,12.658c2.145,4.477,0.334,9.848-4.084,12.112l-16.313,8.359
		c-4.589,2.351-10.213,0.455-12.441-4.195l-6.276-13.1c-2.702-5.64-10.135-6.975-14.63-2.628l-11.69,11.303
		C162.839,134.075,172.474,106.718,195.29,95.787z"/>
</g>
<g>
</g>
<g>
</g>
<g>
</g>
<g>
</g>
<g>
</g>
<g>
</g>
<g>
</g>
<g>
</g>
<g>
</g>
<g>
</g>
<g>
</g>
<g>
</g>
<g>
</g>
<g>
</g>
<g>
</g>
</svg>
